%TF.GenerationSoftware,KiCad,Pcbnew,9.0.0*%
%TF.CreationDate,2025-03-13T12:02:38+01:00*%
%TF.ProjectId,chessboard_pcb,63686573-7362-46f6-9172-645f7063622e,rev?*%
%TF.SameCoordinates,Original*%
%TF.FileFunction,Plated,1,2,PTH,Drill*%
%TF.FilePolarity,Positive*%
%FSLAX46Y46*%
G04 Gerber Fmt 4.6, Leading zero omitted, Abs format (unit mm)*
G04 Created by KiCad (PCBNEW 9.0.0) date 2025-03-13 12:02:38*
%MOMM*%
%LPD*%
G01*
G04 APERTURE LIST*
%TA.AperFunction,ViaDrill*%
%ADD10C,0.300000*%
%TD*%
%TA.AperFunction,ComponentDrill*%
%ADD11C,0.800000*%
%TD*%
%TA.AperFunction,ComponentDrill*%
%ADD12C,0.900000*%
%TD*%
%TA.AperFunction,ComponentDrill*%
%ADD13C,1.000000*%
%TD*%
%TA.AperFunction,ComponentDrill*%
%ADD14C,1.020000*%
%TD*%
%TA.AperFunction,ComponentDrill*%
%ADD15C,1.100000*%
%TD*%
%TA.AperFunction,ComponentDrill*%
%ADD16C,1.300000*%
%TD*%
%TA.AperFunction,ComponentDrill*%
%ADD17C,2.500000*%
%TD*%
G04 APERTURE END LIST*
D10*
X88000000Y-83500000D03*
X89980000Y-81500000D03*
X134100000Y-103400000D03*
D11*
%TO.C,C1*%
X47500000Y-104000000D03*
X50000000Y-104000000D03*
%TO.C,A3*%
X58610000Y-60160000D03*
X58610000Y-72860000D03*
%TO.C,A4988 *%
X58610000Y-94660000D03*
X58610000Y-107360000D03*
%TO.C,C2*%
X59500000Y-100500000D03*
%TO.C,PULLDOWN*%
X60690000Y-112500000D03*
%TO.C,R1*%
X60880000Y-116000000D03*
%TO.C,A3*%
X61150000Y-60160000D03*
X61150000Y-72860000D03*
%TO.C,A4988 *%
X61150000Y-94660000D03*
X61150000Y-107360000D03*
%TO.C,C3*%
X61317621Y-66500000D03*
%TO.C,C2*%
X62000000Y-100500000D03*
%TO.C,A3*%
X63690000Y-60160000D03*
X63690000Y-72860000D03*
%TO.C,A4988 *%
X63690000Y-94660000D03*
X63690000Y-107360000D03*
%TO.C,C3*%
X63817621Y-66500000D03*
%TO.C,A3*%
X66230000Y-60160000D03*
X66230000Y-72860000D03*
%TO.C,A4988 *%
X66230000Y-94660000D03*
X66230000Y-107360000D03*
%TO.C,PULLDOWN*%
X68310000Y-112500000D03*
%TO.C,R1*%
X68500000Y-116000000D03*
%TO.C,A3*%
X68770000Y-60160000D03*
X68770000Y-72860000D03*
%TO.C,A4988 *%
X68770000Y-94660000D03*
X68770000Y-107360000D03*
%TO.C,A3*%
X71310000Y-60160000D03*
X71310000Y-72860000D03*
%TO.C,A4988 *%
X71310000Y-94660000D03*
X71310000Y-107360000D03*
%TO.C,A3*%
X73850000Y-60160000D03*
X73850000Y-72860000D03*
%TO.C,A4988 *%
X73850000Y-94660000D03*
X73850000Y-107360000D03*
%TO.C,A3*%
X76390000Y-60160000D03*
X76390000Y-72860000D03*
%TO.C,A4988 *%
X76390000Y-94660000D03*
X76390000Y-107360000D03*
D12*
%TO.C,BUCK1*%
X34928500Y-56265500D03*
X34928500Y-95762500D03*
X52073500Y-56265500D03*
X52073500Y-95762500D03*
D13*
%TO.C,motor*%
X63680000Y-56250000D03*
X63680000Y-90750000D03*
%TO.C,J8*%
X64955000Y-79000000D03*
X64955000Y-81540000D03*
%TO.C,motor*%
X66220000Y-56250000D03*
X66220000Y-90750000D03*
%TO.C,J8*%
X67495000Y-79000000D03*
X67495000Y-81540000D03*
%TO.C,motor*%
X68760000Y-56250000D03*
X68760000Y-90750000D03*
%TO.C,J8*%
X70035000Y-79000000D03*
X70035000Y-81540000D03*
%TO.C,motor*%
X71300000Y-56250000D03*
X71300000Y-90750000D03*
%TO.C,J7*%
X86420000Y-112500000D03*
X86420000Y-115040000D03*
X88960000Y-112500000D03*
X88960000Y-115040000D03*
X91500000Y-112500000D03*
X91500000Y-115040000D03*
%TO.C,A1*%
X104490000Y-101390000D03*
X104490000Y-116630000D03*
X107030000Y-101390000D03*
X107030000Y-116630000D03*
%TO.C,J13*%
X108340000Y-75500000D03*
X108340000Y-78040000D03*
%TO.C,A1*%
X109570000Y-101390000D03*
X109570000Y-116630000D03*
%TO.C,J13*%
X110880000Y-75500000D03*
X110880000Y-78040000D03*
%TO.C,A1*%
X112110000Y-101390000D03*
X112110000Y-116630000D03*
%TO.C,J13*%
X113420000Y-75500000D03*
X113420000Y-78040000D03*
%TO.C,A1*%
X114650000Y-101390000D03*
X114650000Y-116630000D03*
%TO.C,J13*%
X115960000Y-75500000D03*
X115960000Y-78040000D03*
%TO.C,A1*%
X117190000Y-101390000D03*
X117190000Y-116630000D03*
%TO.C,J13*%
X118500000Y-75500000D03*
X118500000Y-78040000D03*
%TO.C,A1*%
X119730000Y-101390000D03*
X119730000Y-116630000D03*
%TO.C,J13*%
X121040000Y-75500000D03*
X121040000Y-78040000D03*
%TO.C,A1*%
X122270000Y-101390000D03*
X122270000Y-116630000D03*
%TO.C,J13*%
X123580000Y-75500000D03*
X123580000Y-78040000D03*
%TO.C,A1*%
X124810000Y-101390000D03*
X124810000Y-116630000D03*
%TO.C,J13*%
X126120000Y-75500000D03*
X126120000Y-78040000D03*
%TO.C,A1*%
X127350000Y-101390000D03*
X127350000Y-116630000D03*
X129890000Y-101390000D03*
X129890000Y-116630000D03*
X132430000Y-101390000D03*
X132430000Y-116630000D03*
X134970000Y-101390000D03*
X134970000Y-116630000D03*
X137510000Y-101390000D03*
X137510000Y-116630000D03*
X140050000Y-101390000D03*
X140050000Y-116630000D03*
%TO.C,J12*%
X156800000Y-75500000D03*
X156800000Y-78040000D03*
X159340000Y-75500000D03*
X159340000Y-78040000D03*
X161880000Y-75500000D03*
X161880000Y-78040000D03*
X164420000Y-75500000D03*
X164420000Y-78040000D03*
X166960000Y-75500000D03*
X166960000Y-78040000D03*
X169500000Y-75500000D03*
X169500000Y-78040000D03*
X172040000Y-75500000D03*
X172040000Y-78040000D03*
X174580000Y-75500000D03*
X174580000Y-78040000D03*
%TO.C,J14*%
X205760000Y-75500000D03*
X205760000Y-78040000D03*
X208300000Y-75500000D03*
X208300000Y-78040000D03*
X210840000Y-75500000D03*
X210840000Y-78040000D03*
X213380000Y-75500000D03*
X213380000Y-78040000D03*
X215920000Y-75500000D03*
X215920000Y-78040000D03*
X218460000Y-75500000D03*
X218460000Y-78040000D03*
X221000000Y-75500000D03*
X221000000Y-78040000D03*
X223540000Y-75500000D03*
X223540000Y-78040000D03*
%TO.C,J15*%
X254300000Y-75500000D03*
X254300000Y-78040000D03*
X256840000Y-75500000D03*
X256840000Y-78040000D03*
X259380000Y-75500000D03*
X259380000Y-78040000D03*
X261920000Y-75500000D03*
X261920000Y-78040000D03*
X264460000Y-75500000D03*
X264460000Y-78040000D03*
X267000000Y-75500000D03*
X267000000Y-78040000D03*
X269540000Y-75500000D03*
X269540000Y-78040000D03*
X272080000Y-75500000D03*
X272080000Y-78040000D03*
D14*
%TO.C,multiplexer*%
X85278750Y-68397500D03*
X85278750Y-70937500D03*
X85278750Y-73477500D03*
X85278750Y-76017500D03*
X85278750Y-78557500D03*
X85278750Y-81097500D03*
X85278750Y-83637500D03*
X85278750Y-86177500D03*
X100518750Y-58237500D03*
X100518750Y-60777500D03*
X100518750Y-63317500D03*
X100518750Y-65857500D03*
X100518750Y-68397500D03*
X100518750Y-70937500D03*
X100518750Y-73477500D03*
X100518750Y-76017500D03*
X100518750Y-78557500D03*
X100518750Y-81097500D03*
X100518750Y-83637500D03*
X100518750Y-86177500D03*
X100518750Y-88717500D03*
X100518750Y-91257500D03*
X100518750Y-93797500D03*
X100518750Y-96337500D03*
%TO.C,U1*%
X133880000Y-68397500D03*
X133880000Y-70937500D03*
X133880000Y-73477500D03*
X133880000Y-76017500D03*
X133880000Y-78557500D03*
X133880000Y-81097500D03*
X133880000Y-83637500D03*
X133880000Y-86177500D03*
X149120000Y-58237500D03*
X149120000Y-60777500D03*
X149120000Y-63317500D03*
X149120000Y-65857500D03*
X149120000Y-68397500D03*
X149120000Y-70937500D03*
X149120000Y-73477500D03*
X149120000Y-76017500D03*
X149120000Y-78557500D03*
X149120000Y-81097500D03*
X149120000Y-83637500D03*
X149120000Y-86177500D03*
X149120000Y-88717500D03*
X149120000Y-91257500D03*
X149120000Y-93797500D03*
X149120000Y-96337500D03*
%TO.C,U3*%
X182380000Y-68397500D03*
X182380000Y-70937500D03*
X182380000Y-73477500D03*
X182380000Y-76017500D03*
X182380000Y-78557500D03*
X182380000Y-81097500D03*
X182380000Y-83637500D03*
X182380000Y-86177500D03*
X197620000Y-58237500D03*
X197620000Y-60777500D03*
X197620000Y-63317500D03*
X197620000Y-65857500D03*
X197620000Y-68397500D03*
X197620000Y-70937500D03*
X197620000Y-73477500D03*
X197620000Y-76017500D03*
X197620000Y-78557500D03*
X197620000Y-81097500D03*
X197620000Y-83637500D03*
X197620000Y-86177500D03*
X197620000Y-88717500D03*
X197620000Y-91257500D03*
X197620000Y-93797500D03*
X197620000Y-96337500D03*
%TO.C,U4*%
X231380000Y-68397500D03*
X231380000Y-70937500D03*
X231380000Y-73477500D03*
X231380000Y-76017500D03*
X231380000Y-78557500D03*
X231380000Y-81097500D03*
X231380000Y-83637500D03*
X231380000Y-86177500D03*
X246620000Y-58237500D03*
X246620000Y-60777500D03*
X246620000Y-63317500D03*
X246620000Y-65857500D03*
X246620000Y-68397500D03*
X246620000Y-70937500D03*
X246620000Y-73477500D03*
X246620000Y-76017500D03*
X246620000Y-78557500D03*
X246620000Y-81097500D03*
X246620000Y-83637500D03*
X246620000Y-86177500D03*
X246620000Y-88717500D03*
X246620000Y-91257500D03*
X246620000Y-93797500D03*
X246620000Y-96337500D03*
D15*
%TO.C,D1*%
X45580000Y-109330000D03*
X45580000Y-119490000D03*
%TO.C,Q1*%
X52695000Y-110640000D03*
X52695000Y-113180000D03*
X52695000Y-115720000D03*
D16*
%TO.C,J2*%
X37827500Y-101500000D03*
X37827500Y-106500000D03*
%TO.C,J1*%
X37827500Y-112500000D03*
X37827500Y-117500000D03*
%TO.C,J11*%
X149000000Y-113000000D03*
X154000000Y-113000000D03*
X159000000Y-113000000D03*
X164000000Y-113000000D03*
X169000000Y-113000000D03*
X174000000Y-113000000D03*
X179000000Y-113000000D03*
X184000000Y-113000000D03*
D17*
%TO.C,BUCK1*%
X35500000Y-91000000D03*
X51502000Y-61028000D03*
M02*
